<svg width="28" height="28" viewBox="0 0 28 28" fill="none" xmlns="http://www.w3.org/2000/svg">
<path d="M22.5052 19.88L21.0002 18.375V12.5417C21.0002 8.96 19.0868 5.96167 15.7502 5.16833V4.375C15.7502 3.40667 14.9685 2.625 14.0002 2.625C13.0318 2.625 12.2502 3.40667 12.2502 4.375V5.16833C8.90185 5.96167 7.00018 8.94833 7.00018 12.5417V18.375L5.49518 19.88C4.76018 20.615 5.27352 21.875 6.31185 21.875H21.6768C22.7268 21.875 23.2402 20.615 22.5052 19.88ZM18.6668 19.5417H9.33352V12.5417C9.33352 9.64833 11.0952 7.29167 14.0002 7.29167C16.9052 7.29167 18.6668 9.64833 18.6668 12.5417V19.5417ZM14.0002 25.375C15.2835 25.375 16.3335 24.325 16.3335 23.0417H11.6668C11.6668 24.325 12.7052 25.375 14.0002 25.375Z" fill="#000F28"/>
<circle cx="20" cy="8" r="7" fill="#0A68FF"/>
<path d="M19.64 12.1C19.1467 12.1 18.6633 12.03 18.19 11.89C17.7233 11.7433 17.33 11.5433 17.01 11.29L17.57 10.28C17.8233 10.4867 18.13 10.6533 18.49 10.78C18.85 10.9067 19.2267 10.97 19.62 10.97C20.0867 10.97 20.45 10.8767 20.71 10.69C20.97 10.4967 21.1 10.2367 21.1 9.91C21.1 9.59 20.98 9.33667 20.74 9.15C20.5 8.96333 20.1133 8.87 19.58 8.87H18.94V7.98L20.94 5.6L21.11 6.09H17.35V5H22.12V5.87L20.12 8.25L19.44 7.85H19.83C20.69 7.85 21.3333 8.04333 21.76 8.43C22.1933 8.81 22.41 9.3 22.41 9.9C22.41 10.2933 22.31 10.6567 22.11 10.99C21.91 11.3233 21.6033 11.5933 21.19 11.8C20.7833 12 20.2667 12.1 19.64 12.1Z" fill="white"/>
</svg>
