<svg width="48" height="48" viewBox="0 0 48 48" fill="none" xmlns="http://www.w3.org/2000/svg">
<rect width="48" height="48" rx="8" fill="#E7F0FF"/>
<path d="M21.6641 32.5487V26.7154H26.3308V32.5487C26.3308 33.1904 26.8558 33.7154 27.4974 33.7154H30.9974C31.6391 33.7154 32.1641 33.1904 32.1641 32.5487V24.3821H34.1474C34.6841 24.3821 34.9408 23.7171 34.5324 23.3671L24.7791 14.5821C24.3358 14.1854 23.6591 14.1854 23.2158 14.5821L13.4624 23.3671C13.0658 23.7171 13.3108 24.3821 13.8474 24.3821H15.8308V32.5487C15.8308 33.1904 16.3558 33.7154 16.9974 33.7154H20.4974C21.1391 33.7154 21.6641 33.1904 21.6641 32.5487Z" fill="#0A68FF"/>
</svg>
