<svg width="42" height="39" viewBox="0 0 42 39" fill="none" xmlns="http://www.w3.org/2000/svg">
<path d="M-6.10352e-05 12.0742C-6.10352e-05 11.8482 0.10684 11.6357 0.288186 11.5009L9.75711 4.46689C10.3513 4.02546 11.1948 4.44961 11.1948 5.18986V32.8254C11.1948 35.9168 8.68874 38.4228 5.59737 38.4228C2.50599 38.4228 -6.10352e-05 35.9167 -6.10352e-05 32.8254V12.0742Z" fill="#0A68FF"/>
<path d="M30.386 6.19935C30.386 5.01974 31.7138 4.32839 32.6802 5.00485L41.0682 10.8764C41.3895 11.1013 41.5808 11.4689 41.5808 11.8611V32.8254C41.5808 35.9167 39.0748 38.4228 35.9834 38.4228C32.892 38.4228 30.386 35.9167 30.386 32.8254V6.19935Z" fill="#0A68FF"/>
<path d="M15.1931 16.1459C15.1931 15.3769 15.8164 14.7536 16.5854 14.7536H24.9956C25.7646 14.7536 26.3879 15.3769 26.3879 16.1459V32.8253C26.3879 35.9166 23.8819 38.4227 20.7905 38.4227C17.6991 38.4227 15.1931 35.9166 15.1931 32.8253V16.1459Z" fill="#0A68FF"/>
<circle cx="20.7905" cy="6.08388" r="5.59743" fill="#0A68FF"/>
</svg>
