<svg width="58" height="12" viewBox="0 0 58 12" fill="none" xmlns="http://www.w3.org/2000/svg">
<path d="M0.203556 11V0.849527H2.14665L6.46785 8.01286H5.4383L9.687 0.849527H11.6156L11.6446 11H9.44049L9.42599 4.22819H9.832L6.43885 9.92695H5.3803L1.91464 4.22819H2.40766V11H0.203556ZM17.6055 11.116C16.7741 11.116 16.0346 10.942 15.3869 10.594C14.7489 10.246 14.2413 9.77228 13.8643 9.17292C13.497 8.56389 13.3133 7.87269 13.3133 7.09932C13.3133 6.31628 13.497 5.62508 13.8643 5.02572C14.2413 4.41669 14.7489 3.943 15.3869 3.60466C16.0346 3.25664 16.7741 3.08263 17.6055 3.08263C18.4272 3.08263 19.1619 3.25664 19.8096 3.60466C20.4573 3.943 20.9648 4.41186 21.3322 5.01122C21.6995 5.61058 21.8832 6.30661 21.8832 7.09932C21.8832 7.87269 21.6995 8.56389 21.3322 9.17292C20.9648 9.77228 20.4573 10.246 19.8096 10.594C19.1619 10.942 18.4272 11.116 17.6055 11.116ZM17.6055 9.25992C17.9825 9.25992 18.3209 9.17291 18.6205 8.99891C18.9202 8.8249 19.1571 8.57839 19.3311 8.25937C19.5051 7.93069 19.5921 7.54401 19.5921 7.09932C19.5921 6.64496 19.5051 6.25828 19.3311 5.93926C19.1571 5.62025 18.9202 5.37374 18.6205 5.19973C18.3209 5.02572 17.9825 4.93872 17.6055 4.93872C17.2285 4.93872 16.8901 5.02572 16.5905 5.19973C16.2908 5.37374 16.0491 5.62025 15.8654 5.93926C15.6914 6.25828 15.6044 6.64496 15.6044 7.09932C15.6044 7.54401 15.6914 7.93069 15.8654 8.25937C16.0491 8.57839 16.2908 8.8249 16.5905 8.99891C16.8901 9.17291 17.2285 9.25992 17.6055 9.25992ZM23.5547 11V0.849527H25.4978L31.4866 8.15787H30.5441V0.849527H32.8642V11H30.9356L24.9323 3.69166H25.8748V11H23.5547ZM39.8479 3.08263C40.4666 3.08263 41.0177 3.2083 41.501 3.45965C41.994 3.70133 42.3807 4.07834 42.6611 4.5907C42.9414 5.09339 43.0816 5.74109 43.0816 6.53379V11H40.8195V6.88181C40.8195 6.25345 40.6793 5.78942 40.399 5.48974C40.1283 5.19006 39.7416 5.04022 39.2389 5.04022C38.8812 5.04022 38.5574 5.11756 38.2674 5.27223C37.987 5.41724 37.7647 5.64442 37.6003 5.95377C37.4457 6.26311 37.3683 6.65946 37.3683 7.14282V11H35.1062V3.19864H37.2668V5.35924L36.8608 4.70671C37.1412 4.18468 37.5423 3.7835 38.0644 3.50315C38.5864 3.2228 39.1809 3.08263 39.8479 3.08263ZM45.2916 11V0.849527H47.6407V11H45.2916ZM52.1522 11V2.76362H48.9041V0.849527H57.7495V2.76362H54.5013V11H52.1522Z" fill="#092E69"/>
</svg>
