<svg width="48" height="48" viewBox="0 0 48 48" fill="none" xmlns="http://www.w3.org/2000/svg">
<path d="M32.1667 14.6667H31V12.3333H28.6667V14.6667H19.3333V12.3333H17V14.6667H15.8333C14.5383 14.6667 13.5 15.7167 13.5 17V33.3333C13.5 34.6167 14.5383 35.6667 15.8333 35.6667H32.1667C33.45 35.6667 34.5 34.6167 34.5 33.3333V17C34.5 15.7167 33.45 14.6667 32.1667 14.6667ZM32.1667 33.3333H15.8333V21.6667H32.1667V33.3333ZM32.1667 19.3333H15.8333V17H32.1667V19.3333ZM18.1667 24H24V29.8333H18.1667V24Z" fill="#092E69"/>
<rect x="0.1" y="0.1" width="47.8" height="47.8" rx="7.9" stroke="#848D96" stroke-width="0.2"/>
</svg>
