<svg width="48" height="48" viewBox="0 0 48 48" fill="none" xmlns="http://www.w3.org/2000/svg">
<path d="M14.7658 30.4167V29.6583C14.7658 29.2617 14.9525 28.8883 15.2442 28.7133C17.2158 27.535 19.4675 26.9167 21.7658 26.9167C21.8008 26.9167 21.8242 26.9167 21.8592 26.9283C21.9758 26.1117 22.2092 25.33 22.5475 24.6183C22.2908 24.595 22.0342 24.5833 21.7658 24.5833C18.9425 24.5833 16.3058 25.365 14.0542 26.7067C13.0275 27.3133 12.4325 28.4567 12.4325 29.6583V32.75H23.2358C22.7458 32.05 22.3608 31.2567 22.1042 30.4167H14.7658Z" fill="#092E69"/>
<path d="M21.7658 23.4167C24.3442 23.4167 26.4325 21.3283 26.4325 18.75C26.4325 16.1717 24.3442 14.0833 21.7658 14.0833C19.1875 14.0833 17.0992 16.1717 17.0992 18.75C17.0992 21.3283 19.1875 23.4167 21.7658 23.4167ZM21.7658 16.4167C23.0492 16.4167 24.0992 17.4667 24.0992 18.75C24.0992 20.0333 23.0492 21.0833 21.7658 21.0833C20.4825 21.0833 19.4325 20.0333 19.4325 18.75C19.4325 17.4667 20.4825 16.4167 21.7658 16.4167Z" fill="#092E69"/>
<path d="M34.3075 28.0833C34.3075 27.8267 34.2725 27.5933 34.2375 27.3483L35.5675 26.17L34.4008 24.1517L32.7092 24.7233C32.3358 24.4083 31.9158 24.1633 31.4492 23.9883L31.0992 22.25H28.7658L28.4158 23.9883C27.9492 24.1633 27.5292 24.4083 27.1558 24.7233L25.4642 24.1517L24.2975 26.17L25.6275 27.3483C25.5925 27.5933 25.5575 27.8267 25.5575 28.0833C25.5575 28.34 25.5925 28.5733 25.6275 28.8183L24.2975 29.9967L25.4642 32.015L27.1558 31.4433C27.5292 31.7583 27.9492 32.0033 28.4158 32.1783L28.7658 33.9167H31.0992L31.4492 32.1783C31.9158 32.0033 32.3358 31.7583 32.7092 31.4433L34.4008 32.015L35.5675 29.9967L34.2375 28.8183C34.2725 28.5733 34.3075 28.34 34.3075 28.0833ZM29.9325 30.4167C28.6492 30.4167 27.5992 29.3667 27.5992 28.0833C27.5992 26.8 28.6492 25.75 29.9325 25.75C31.2158 25.75 32.2658 26.8 32.2658 28.0833C32.2658 29.3667 31.2158 30.4167 29.9325 30.4167Z" fill="#092E69"/>
<rect x="0.1" y="0.1" width="47.8" height="47.8" rx="7.9" stroke="#848D96" stroke-width="0.2"/>
</svg>
