<svg width="48" height="48" viewBox="0 0 48 48" fill="none" xmlns="http://www.w3.org/2000/svg">
<path d="M32.1667 14.6667H31V12.3333H28.6667V14.6667H19.3333V12.3333H17V14.6667H15.8333C14.55 14.6667 13.5 15.7167 13.5 17V33.3333C13.5 34.6167 14.55 35.6667 15.8333 35.6667H32.1667C33.45 35.6667 34.5 34.6167 34.5 33.3333V17C34.5 15.7167 33.45 14.6667 32.1667 14.6667ZM32.1667 33.3333H15.8333V21.6667H32.1667V33.3333ZM15.8333 19.3333V17H32.1667V19.3333H15.8333ZM19.6017 30.3117L20.8383 31.5483L23.685 28.7017L26.5317 31.5483L27.7683 30.3117L24.9217 27.465L27.7683 24.6183L26.5317 23.3817L23.685 26.2283L20.8383 23.3817L19.6017 24.6183L22.4483 27.465L19.6017 30.3117Z" fill="#092E69"/>
<rect x="0.1" y="0.1" width="47.8" height="47.8" rx="7.9" stroke="#848D96" stroke-width="0.2"/>
</svg>
