<svg width="48" height="48" viewBox="0 0 48 48" fill="none" xmlns="http://www.w3.org/2000/svg">
<path d="M20.5 24C22.7516 24 24.5833 22.1683 24.5833 19.9167C24.5833 17.665 22.7516 15.8333 20.5 15.8333C18.2483 15.8333 16.4166 17.665 16.4166 19.9167C16.4166 22.1683 18.2483 24 20.5 24ZM20.5 18.1667C21.4683 18.1667 22.25 18.9483 22.25 19.9167C22.25 20.885 21.4683 21.6667 20.5 21.6667C19.5316 21.6667 18.75 20.885 18.75 19.9167C18.75 18.9483 19.5316 18.1667 20.5 18.1667ZM20.5583 29.8333H15.565C16.72 29.25 18.715 28.6667 20.5 28.6667C20.6283 28.6667 20.7683 28.6783 20.8966 28.6783C21.2933 27.8267 21.9816 27.1267 22.81 26.5667C21.9583 26.415 21.1533 26.3333 20.5 26.3333C17.77 26.3333 12.3333 27.6983 12.3333 30.4167V32.1667H20.5V30.4167C20.5 30.2183 20.5233 30.02 20.5583 29.8333ZM29.25 26.9167C27.1033 26.9167 22.8333 28.095 22.8333 30.4167V32.1667H35.6666V30.4167C35.6666 28.095 31.3966 26.9167 29.25 26.9167ZM30.6616 24.7933C31.5483 24.2917 32.1666 23.3467 32.1666 22.25C32.1666 20.64 30.86 19.3333 29.25 19.3333C27.64 19.3333 26.3333 20.64 26.3333 22.25C26.3333 23.3467 26.9516 24.2917 27.8383 24.7933C28.2583 25.0267 28.7366 25.1667 29.25 25.1667C29.7633 25.1667 30.2416 25.0267 30.6616 24.7933Z" fill="#092E69"/>
<rect x="0.1" y="0.1" width="47.8" height="47.8" rx="7.9" stroke="#848D96" stroke-width="0.2"/>
</svg>
