<svg width="48" height="48" viewBox="0 0 48 48" fill="none" xmlns="http://www.w3.org/2000/svg">
<path d="M26.3333 20.5H21.6667C21.025 20.5 20.5 19.975 20.5 19.3333C20.5 18.6917 21.025 18.1667 21.6667 18.1667H26.3333C26.975 18.1667 27.5 18.6917 27.5 19.3333C27.5 19.975 26.975 20.5 26.3333 20.5Z" fill="#092E69"/>
<path d="M26.3333 24H21.6667C21.025 24 20.5 23.475 20.5 22.8333C20.5 22.1917 21.025 21.6667 21.6667 21.6667H26.3333C26.975 21.6667 27.5 22.1917 27.5 22.8333C27.5 23.475 26.975 24 26.3333 24Z" fill="#092E69"/>
<path d="M32.75 14.0833L31 12.3333L29.25 14.0833L27.5 12.3333L25.75 14.0833L24 12.3333L22.25 14.0833L20.5 12.3333L18.75 14.0833L17 12.3333V28.6667H14.6667C14.025 28.6667 13.5 29.1917 13.5 29.8333V32.1667C13.5 34.1033 15.0633 35.6667 17 35.6667H31C32.9367 35.6667 34.5 34.1033 34.5 32.1667V12.3333L32.75 14.0833ZM27.5 33.3333H17C16.3583 33.3333 15.8333 32.8083 15.8333 32.1667V31H27.5V33.3333ZM32.1667 32.1667C32.1667 32.8083 31.6417 33.3333 31 33.3333C30.3583 33.3333 29.8333 32.8083 29.8333 32.1667V29.8333C29.8333 29.1917 29.3083 28.6667 28.6667 28.6667H19.3333V15.8333H32.1667V32.1667Z" fill="#092E69"/>
<path d="M29.8333 20.5C30.4777 20.5 31 19.9777 31 19.3333C31 18.689 30.4777 18.1667 29.8333 18.1667C29.189 18.1667 28.6667 18.689 28.6667 19.3333C28.6667 19.9777 29.189 20.5 29.8333 20.5Z" fill="#092E69"/>
<path d="M29.8333 24C30.4777 24 31 23.4777 31 22.8333C31 22.189 30.4777 21.6667 29.8333 21.6667C29.189 21.6667 28.6667 22.189 28.6667 22.8333C28.6667 23.4777 29.189 24 29.8333 24Z" fill="#092E69"/>
<rect x="0.1" y="0.1" width="47.8" height="47.8" rx="7.9" stroke="#848D96" stroke-width="0.2"/>
</svg>
