<svg width="48" height="48" viewBox="0 0 48 48" fill="none" xmlns="http://www.w3.org/2000/svg">
<path d="M14.5894 21.0833H30.9227V23.4167H33.256V16.4167C33.256 15.1333 32.206 14.0833 30.9227 14.0833H29.756V11.75H27.4227V14.0833H18.0894V11.75H15.756V14.0833H14.5894C13.2944 14.0833 12.2677 15.1333 12.2677 16.4167L12.256 32.75C12.256 34.0333 13.2944 35.0833 14.5894 35.0833H22.756V32.75H14.5894V21.0833ZM14.5894 16.4167H30.9227V18.75H14.5894V16.4167ZM35.4027 28.41L34.5744 29.2383L32.101 26.765L32.9294 25.9367C33.3844 25.4817 34.1194 25.4817 34.5744 25.9367L35.4027 26.765C35.8577 27.22 35.8577 27.955 35.4027 28.41ZM31.2727 27.5933L33.746 30.0667L27.5627 36.25H25.0894V33.7767L31.2727 27.5933Z" fill="#092E69"/>
<rect x="0.1" y="0.1" width="47.8" height="47.8" rx="7.9" stroke="#848D96" stroke-width="0.2"/>
</svg>
